<svg xmlns="http://www.w3.org/2000/svg" xmlns:xlink="http://www.w3.org/1999/xlink" width="28.466" height="32" viewBox="0 0 28.466 32">
  <defs>
    <linearGradient id="linear-gradient" x1="0.966" y1="0.226" x2="0" y2="0.758" gradientUnits="objectBoundingBox">
      <stop offset="0" stop-color="#69eddc"/>
      <stop offset="1" stop-color="#40a8d1"/>
    </linearGradient>
  </defs>
  <path id="ipop_ic" d="M14.016,32a9.583,9.583,0,0,1-1.541-.7A2.726,2.726,0,0,1,11.4,28.377a2.921,2.921,0,1,1,3.293,3.539,1.408,1.408,0,0,0-.232.083Zm.293-4.762a1.7,1.7,0,0,0-1.872,1.744A1.758,1.758,0,0,0,14.2,30.846a1.716,1.716,0,0,0,1.826-1.793,1.683,1.683,0,0,0-1.676-1.815Zm3.087.144a.492.492,0,0,1,.237-.661q.984-.578,1.97-1.152c.625-.365,1.248-.733,1.875-1.095.4-.227.7-.173.884.145s.077.586-.314.815q-1.874,1.1-3.754,2.182c-.114.066-.24.114-.439.207C17.7,27.684,17.485,27.565,17.4,27.383Zm-7.294.262c-.927-.531-1.848-1.073-2.771-1.611-.361-.21-.723-.418-1.079-.635a.6.6,0,0,1-.267-.784.559.559,0,0,1,.794-.185c1.32.758,2.637,1.521,3.944,2.3.144.086.214.3.26.363-.009.419-.247.651-.54.651A.689.689,0,0,1,10.1,27.645Zm4.131-2.182c-.33,0-.574-.326-.575-.771q0-1.8,0-3.592v-.417A5,5,0,0,1,10.5,18.794L8.234,20.1c-.458.264-.911.535-1.374.789a.554.554,0,0,1-.817-.19.536.536,0,0,1,.273-.769c1.08-.635,2.163-1.265,3.254-1.882.253-.143.353-.266.234-.573A4.05,4.05,0,0,1,9.81,14.5c.1-.271.033-.389-.2-.521-1.09-.619-2.177-1.242-3.247-1.895a.814.814,0,0,1-.371-.566c0-.165.236-.4.42-.475a.8.8,0,0,1,.564.135c1.07.6,2.129,1.226,3.192,1.842.105.061.214.116.333.18a4.976,4.976,0,0,1,3.157-1.877c0-.484,0-.963,0-1.443,0-.864,0-1.728,0-2.592,0-.436.269-.766.6-.749a.674.674,0,0,1,.562.748c0,1.332,0,2.665,0,4.03a5.014,5.014,0,0,1,3.162,1.892L21.3,11.281c.138-.08.277-.159.42-.23a.5.5,0,0,1,.67.2.482.482,0,0,1-.072.692,1.917,1.917,0,0,1-.365.249c-1.03.6-2.058,1.2-3.1,1.786a.355.355,0,0,0-.195.524,4.125,4.125,0,0,1,0,3.014.336.336,0,0,0,.182.5c1.089.619,2.171,1.252,3.254,1.883.254.148.472.329.375.672-.118.416-.482.546-.9.308-1.013-.579-2.02-1.17-3.03-1.755-.18-.1-.362-.206-.565-.321a5.011,5.011,0,0,1-3.162,1.886v2.906c0,.37,0,.741,0,1.111,0,.437-.254.763-.578.763Zm-3.582-9.584a3.5,3.5,0,0,0,3.566,3.69,3.492,3.492,0,0,0,3.6-3.353,3.561,3.561,0,0,0-3.392-3.8c-.056,0-.112,0-.167,0A3.569,3.569,0,0,0,10.652,15.878Zm14.894,9.568a2.885,2.885,0,1,1,.033,0Zm1.827-2.925a1.779,1.779,0,0,0-1.766-1.811,1.726,1.726,0,0,0-1.863,1.822,1.659,1.659,0,0,0,1.781,1.775A1.723,1.723,0,0,0,27.373,22.522ZM.008,22.534a2.957,2.957,0,0,1,2.9-2.944,2.928,2.928,0,0,1,.032,5.856H2.89A2.957,2.957,0,0,1,.008,22.534Zm1.1-.029a1.717,1.717,0,0,0,1.749,1.812A1.709,1.709,0,0,0,4.73,22.512a1.666,1.666,0,0,0-1.809-1.783c-.051,0-.1-.007-.152-.007A1.705,1.705,0,0,0,1.109,22.505ZM25.5,18.944c-.328,0-.575-.325-.577-.767,0-.739,0-1.478,0-2.217,0-.714,0-1.429,0-2.143,0-.442.252-.765.581-.763s.577.326.578.767q0,2.18,0,4.36c0,.438-.253.763-.58.763ZM2.4,18.181q0-2.18,0-4.36c0-.441.249-.765.577-.767s.58.324.582.763c0,.727,0,1.453,0,2.18s0,1.453,0,2.18c0,.442-.249.765-.577.766h0C2.651,18.944,2.4,18.62,2.4,18.181Zm.5-5.772A2.99,2.99,0,0,1,0,9.454a2.99,2.99,0,0,1,2.912-2.9A3,3,0,0,1,5.856,9.507a3,3,0,0,1-2.929,2.9ZM1.1,9.466a1.778,1.778,0,0,0,1.79,1.823A1.727,1.727,0,0,0,4.73,9.477,1.666,1.666,0,0,0,2.924,7.691c-.05,0-.1-.007-.15-.007A1.729,1.729,0,0,0,1.1,9.466ZM25.56,12.409a2.9,2.9,0,1,1,.007,0ZM23.741,9.49a1.709,1.709,0,0,0,1.778,1.793,1.761,1.761,0,0,0,1.855-1.792,1.716,1.716,0,0,0-1.8-1.8q-.073-.006-.146-.006A1.676,1.676,0,0,0,23.741,9.49ZM6.042,7.66c-.164-.3-.069-.568.306-.786Q8.226,5.782,10.111,4.7a3.112,3.112,0,0,1,.427-.155c.132.129.341.246.409.419a.5.5,0,0,1-.229.666c-.756.432-1.508.873-2.263,1.309-.52.3-1.04.6-1.565.9a.8.8,0,0,1-.383.112A.517.517,0,0,1,6.042,7.66Zm15.523.2c-.572-.308-1.133-.637-1.7-.958-.7-.4-1.408-.8-2.109-1.2-.4-.231-.506-.5-.331-.808.184-.325.483-.377.89-.147,1.239.7,2.48,1.393,3.709,2.109a2,2,0,0,1,.422.422.6.6,0,0,1-.572.668A.655.655,0,0,1,21.565,7.862ZM11.308,3.008A2.98,2.98,0,0,1,13.746.085,2.636,2.636,0,0,0,14.016,0h.444a4.1,4.1,0,0,1,1.615.73,2.881,2.881,0,0,1,1,2.894,2.961,2.961,0,0,1-2.4,2.214,2.568,2.568,0,0,1-.476.044A2.985,2.985,0,0,1,11.308,3.008Zm3-1.843a1.707,1.707,0,0,0-1.873,1.743A1.759,1.759,0,0,0,14.2,4.772,1.716,1.716,0,0,0,16.029,2.98a1.682,1.682,0,0,0-1.676-1.816Z" fill="url(#linear-gradient)"/>
</svg>
