<svg xmlns="http://www.w3.org/2000/svg" xmlns:xlink="http://www.w3.org/1999/xlink" width="68" height="68" viewBox="0 0 68 68">
  <defs>
    <filter id="Rectangle_1021" x="0" y="0" width="68" height="68" filterUnits="userSpaceOnUse">
      <feOffset dy="3" input="SourceAlpha"/>
      <feGaussianBlur stdDeviation="3" result="blur"/>
      <feFlood flood-opacity="0.251"/>
      <feComposite operator="in" in2="blur"/>
      <feComposite in="SourceGraphic"/>
    </filter>
  </defs>
  <g id="Config" transform="translate(10 7)">
    <g transform="matrix(1, 0, 0, 1, -10, -7)" filter="url(#Rectangle_1021)">
      <g id="Rectangle_1021-2" data-name="Rectangle 1021" transform="translate(10 7)" fill="#213758" stroke="#405b80" stroke-width="1">
        <rect width="48" height="48" rx="6" stroke="none"/>
        <rect x="-0.5" y="-0.5" width="49" height="49" rx="6.5" fill="none"/>
      </g>
    </g>
    <g id="Group_174" data-name="Group 174" transform="translate(10 10)">
      <path id="Path_63" data-name="Path 63" d="M27.224,11.336l-2.014-.342A11.372,11.372,0,0,0,24.4,9.04l1.187-1.66A1.767,1.767,0,0,0,25.4,5.1L23.61,3.31a1.759,1.759,0,0,0-1.253-.521,1.742,1.742,0,0,0-1.025.33L19.666,4.3a11.254,11.254,0,0,0-2.026-.833L17.3,1.481A1.771,1.771,0,0,0,15.554,0H13.031a1.771,1.771,0,0,0-1.75,1.481l-.348,2.038a11.092,11.092,0,0,0-1.948.821L7.337,3.154a1.77,1.77,0,0,0-2.284.192L3.261,5.132a1.774,1.774,0,0,0-.192,2.284L4.268,9.1a11.108,11.108,0,0,0-.8,1.96L1.48,11.4A1.771,1.771,0,0,0,0,13.146v2.523a1.771,1.771,0,0,0,1.481,1.75l2.038.348a11.092,11.092,0,0,0,.821,1.948L3.159,21.357a1.767,1.767,0,0,0,.192,2.284l1.786,1.786a1.759,1.759,0,0,0,1.253.521,1.742,1.742,0,0,0,1.025-.33L9.1,24.42a11.339,11.339,0,0,0,1.894.779l.336,2.014a1.771,1.771,0,0,0,1.75,1.481h2.529a1.771,1.771,0,0,0,1.75-1.481L17.7,25.2a11.372,11.372,0,0,0,1.954-.809l1.66,1.187a1.76,1.76,0,0,0,1.031.33h0a1.759,1.759,0,0,0,1.253-.521L25.384,23.6a1.774,1.774,0,0,0,.192-2.284l-1.187-1.666A11.29,11.29,0,0,0,25.2,17.7l2.014-.336a1.771,1.771,0,0,0,1.481-1.75V13.086A1.749,1.749,0,0,0,27.224,11.336Zm-.138,4.274a.155.155,0,0,1-.132.156l-2.517.42a.8.8,0,0,0-.647.593,9.6,9.6,0,0,1-1.043,2.511.81.81,0,0,0,.036.881l1.481,2.086a.163.163,0,0,1-.018.2l-1.786,1.786a.152.152,0,0,1-.114.048.147.147,0,0,1-.09-.03l-2.08-1.481a.81.81,0,0,0-.881-.036,9.6,9.6,0,0,1-2.511,1.043.8.8,0,0,0-.593.647l-.426,2.517a.155.155,0,0,1-.156.132H13.085a.155.155,0,0,1-.156-.132l-.42-2.517a.8.8,0,0,0-.593-.647,9.964,9.964,0,0,1-2.458-1.007.83.83,0,0,0-.408-.108.789.789,0,0,0-.468.15l-2.1,1.492a.178.178,0,0,1-.09.03.161.161,0,0,1-.114-.048L4.5,22.514a.163.163,0,0,1-.018-.2l1.475-2.068a.821.821,0,0,0,.036-.887A9.5,9.5,0,0,1,4.933,16.85a.821.821,0,0,0-.647-.593L1.75,15.825a.155.155,0,0,1-.132-.156V13.146a.155.155,0,0,1,.132-.156l2.5-.42a.81.81,0,0,0,.653-.6A9.586,9.586,0,0,1,5.928,9.453a.8.8,0,0,0-.042-.875L4.394,6.48a.163.163,0,0,1,.018-.2L6.2,4.49a.152.152,0,0,1,.114-.048.147.147,0,0,1,.09.03L8.469,5.947a.821.821,0,0,0,.887.036,9.5,9.5,0,0,1,2.505-1.055.821.821,0,0,0,.593-.647l.432-2.535a.155.155,0,0,1,.156-.132h2.523a.155.155,0,0,1,.156.132l.42,2.5a.81.81,0,0,0,.6.653,9.729,9.729,0,0,1,2.571,1.055.81.81,0,0,0,.881-.036l2.068-1.486a.178.178,0,0,1,.09-.03.161.161,0,0,1,.114.048l1.786,1.786a.163.163,0,0,1,.018.2l-1.481,2.08a.81.81,0,0,0-.036.881A9.6,9.6,0,0,1,23.8,11.911a.8.8,0,0,0,.647.593l2.517.426a.155.155,0,0,1,.132.156v2.523Z" transform="translate(0 -0.001)" fill="#8fa7c7"/>
      <path id="Path_64" data-name="Path 64" d="M142.292,136a6.192,6.192,0,1,0,6.192,6.192A6.2,6.2,0,0,0,142.292,136Zm0,10.765a4.573,4.573,0,1,1,4.573-4.573A4.576,4.576,0,0,1,142.292,146.766Z" transform="translate(-127.942 -127.849)" fill="#8fa7c7"/>
    </g>
  </g>
</svg>
