<svg xmlns="http://www.w3.org/2000/svg" xmlns:xlink="http://www.w3.org/1999/xlink" width="68" height="68" viewBox="0 0 68 68">
  <defs>
    <filter id="Rectangle_1021" x="0" y="0" width="68" height="68" filterUnits="userSpaceOnUse">
      <feOffset dy="3" input="SourceAlpha"/>
      <feGaussianBlur stdDeviation="3" result="blur"/>
      <feFlood flood-opacity="0.251"/>
      <feComposite operator="in" in2="blur"/>
      <feComposite in="SourceGraphic"/>
    </filter>
  </defs>
  <g id="Info" transform="translate(10 7)">
    <g transform="matrix(1, 0, 0, 1, -10, -7)" filter="url(#Rectangle_1021)">
      <g id="Rectangle_1021-2" data-name="Rectangle 1021" transform="translate(10 7)" fill="#213758" stroke="#405b80" stroke-width="1">
        <rect width="48" height="48" rx="6" stroke="none"/>
        <rect x="-0.5" y="-0.5" width="49" height="49" rx="6.5" fill="none"/>
      </g>
    </g>
    <g id="info-button" transform="translate(10 10)">
      <g id="Group_173" data-name="Group 173" transform="translate(0 0)">
        <path id="Path_62" data-name="Path 62" d="M24.754,4.247a14.5,14.5,0,1,0,0,20.507A14.5,14.5,0,0,0,24.754,4.247ZM16.391,20.8a1.891,1.891,0,0,1-3.783,0V13.239a1.891,1.891,0,0,1,3.783,0Zm-1.925-10.8a1.687,1.687,0,0,1-1.793-1.724,1.686,1.686,0,0,1,1.815-1.747,1.739,1.739,0,1,1-.022,3.471Z" transform="translate(0 0)" fill="#8fa7c7"/>
      </g>
    </g>
  </g>
</svg>
