<svg height="467pt" viewBox="0 -91 467.79855 467" width="467pt" xmlns="http://www.w3.org/2000/svg" xmlns:xlink="http://www.w3.org/1999/xlink"><linearGradient id="a" gradientUnits="userSpaceOnUse" x1="233.898196" x2="233.898196" y1="-102.927615" y2="389.450385"><stop offset="0" stop-color="#00efd1"/><stop offset="1" stop-color="#00acea"/></linearGradient><path d="m404.265625 128.941406c-17.167969-37.335937-54.570313-61.191406-95.660156-61.011718-2.445313 0-4.902344.085937-7.347657.253906-25.738281-50.019532-81.730468-76.675782-136.789062-65.117188-55.054688 11.554688-95.601562 58.476563-99.050781 114.628906-17.65625 5.738282-33.214844 16.589844-44.703125 31.175782-13.28125 16.941406-20.53125 37.828125-20.605469 59.351562l-.0976562 3.234375c0 .164063-.00781255.324219-.0117188.488281-.109375 19.617188 7.589844 38.472657 21.402344 52.402344 13.8125 13.929688 32.597656 21.789063 52.214844 21.847656h320.601562c40.757812-.117187 73.703125-33.261718 73.578125-74.019531l-.089844-3.765625c-.125-38.816406-27.523437-72.578125-63.441406-79.46875zm27.878906 121.394532c-10.011719 10.144531-23.671875 15.855468-37.925781 15.859374h-320.601562c-29.742188-.117187-53.757813-24.332031-53.617188-54.078124l.101562-3.382813c0-.101563 0-.210937 0-.304687.027344-17.101563 5.769532-33.703126 16.3125-47.167969 10.300782-13.113281 24.761719-22.335938 41-26.148438 4.542969-1.058593 7.757813-5.105469 7.757813-9.773437.007813-49.601563 34.738281-92.425782 83.273437-102.675782 48.53125-10.25 97.613282 14.875 117.679688 60.242188 1.808594 4.085938 6.105469 6.476562 10.53125 5.855469 3.957031-.554688 7.941406-.832031 11.933594-.832031 35.019531-.160157 66.542968 21.1875 79.390625 53.765624 1.371093 3.449219 4.542969 5.859376 8.238281 6.25 13.65625 1.449219 26.5 8.421876 36.171875 19.625 9.839844 11.386719 15.273437 25.921876 15.3125 40.972657v.234375l.089844 3.464844c.085937 14.277343-5.550781 27.996093-15.648438 38.09375zm0 0" fill="url(#a)"/></svg>