<svg height="447pt" viewBox="0 -91 447.8012 447" width="447pt" xmlns="http://www.w3.org/2000/svg"><path d="m447.800781 202.152344c.058594 16.902344-6.613281 33.136718-18.542969 45.113281-11.925781 11.972656-28.132812 18.710937-45.035156 18.714844h-320.601562c-16.933594-.007813-33.164063-6.765625-45.101563-18.769531-11.941406-12.007813-18.6054685-28.277344-18.519531-45.207032.0078125-.085937.0117188-.167968.0117188-.25l.0976562-3.363281c.082031-40.160156 27.460937-74.378906 65.082031-83.027344v-.019531c.007813-54.328125 38.046875-101.238281 91.203125-112.460938 53.15625-11.226562 106.914063 16.292969 128.886719 65.980469 43.566406-6.160156 85.699219 18.265625 102 59.140625 33.320312 3.539063 60.359375 34.378906 60.429688 70.519532l.078124 3.417968c0 .070313.011719.140625.011719.210938zm0 0" fill="#00acea"/></svg>