<svg xmlns="http://www.w3.org/2000/svg" xmlns:xlink="http://www.w3.org/1999/xlink" version="1.1" style="enable-background:new 0 0 512 512;" xml:space="preserve" width="512" height="512"><rect id="backgroundrect" width="100%" height="100%" x="0" y="0" fill="none" stroke="none"/>


















<g class="currentLayer" style=""><title>Layer 1</title><g id="svg_1" class="" fill="#ffffff" fill-opacity="1">
	<g id="svg_2" fill="#ffffff" fill-opacity="1">
		<path d="M492,236H20c-11.046,0-20,8.954-20,20c0,11.046,8.954,20,20,20h472c11.046,0,20-8.954,20-20S503.046,236,492,236z" id="svg_3" fill="#ffffff" fill-opacity="1"/>
	</g>
</g><g id="svg_4" class="" fill="#ffffff" fill-opacity="1">
	<g id="svg_5" fill="#ffffff" fill-opacity="1">
		<path d="M492,76H20C8.954,76,0,84.954,0,96s8.954,20,20,20h472c11.046,0,20-8.954,20-20S503.046,76,492,76z" id="svg_6" fill="#ffffff" fill-opacity="1"/>
	</g>
</g><g id="svg_7" class="" fill="#ffffff" fill-opacity="1">
	<g id="svg_8" fill="#ffffff" fill-opacity="1">
		<path d="M492,396H20c-11.046,0-20,8.954-20,20c0,11.046,8.954,20,20,20h472c11.046,0,20-8.954,20-20    C512,404.954,503.046,396,492,396z" id="svg_9" fill="#ffffff" fill-opacity="1"/>
	</g>
</g><g id="svg_10" class="" fill="#ffffff" fill-opacity="1">
</g><g id="svg_11" class="" fill="#ffffff" fill-opacity="1">
</g><g id="svg_12" class="" fill="#ffffff" fill-opacity="1">
</g><g id="svg_13" class="" fill="#ffffff" fill-opacity="1">
</g><g id="svg_14" class="" fill="#ffffff" fill-opacity="1">
</g><g id="svg_15" class="" fill="#ffffff" fill-opacity="1">
</g><g id="svg_16" class="" fill="#ffffff" fill-opacity="1">
</g><g id="svg_17" class="" fill="#ffffff" fill-opacity="1">
</g><g id="svg_18" class="" fill="#ffffff" fill-opacity="1">
</g><g id="svg_19" class="" fill="#ffffff" fill-opacity="1">
</g><g id="svg_20" class="" fill="#ffffff" fill-opacity="1">
</g><g id="svg_21" class="" fill="#ffffff" fill-opacity="1">
</g><g id="svg_22" class="" fill="#ffffff" fill-opacity="1">
</g><g id="svg_23" class="" fill="#ffffff" fill-opacity="1">
</g><g id="svg_24" class="" fill="#ffffff" fill-opacity="1">
</g></g></svg>